<svg version="1.2" baseProfile="tiny-ps" xmlns="http://www.w3.org/2000/svg" viewBox="0 0 1162 793" width="1162" height="793">
	<title>user-img-svg</title>
	<style>
		tspan { white-space:pre }
		.shp0 { fill: #3f3d56 } 
		.shp1 { fill: #f2f2f2 } 
		.shp2 { fill: #5b57d0 } 
		.shp3 { fill: #cccccc } 
		.shp4 { fill: #e6e6e6 } 
		.shp5 { fill: #ffb8b8 } 
		.shp6 { fill: #2f2e41 } 
		.shp7 { fill: #d0cde1 } 
	</style>
	<path id="Layer" class="shp0" d="M565.38 39.7L564.04 39.7L564.04 37.34L565.05 37.34C565.13 37.34 565.22 37.33 565.3 37.29C565.39 37.26 565.46 37.21 565.52 37.15C565.58 37.08 565.63 37.01 565.67 36.93C565.7 36.85 565.72 36.76 565.72 36.67L565.72 24.56C565.72 24.47 565.7 24.38 565.67 24.3C565.63 24.22 565.58 24.15 565.52 24.08C565.46 24.02 565.39 23.97 565.3 23.94C565.22 23.9 565.13 23.89 565.05 23.89L564.04 23.89L564.04 17.01C564.04 15.08 563.66 13.18 562.92 11.4C562.18 9.62 561.11 8.01 559.74 6.65C558.38 5.29 556.77 4.21 554.99 3.47C553.21 2.73 551.31 2.36 549.38 2.36L547.89 2.36L547.89 0.67C547.89 0.58 547.87 0.5 547.84 0.42C547.8 0.33 547.75 0.26 547.69 0.2C547.63 0.13 547.55 0.09 547.47 0.05C547.39 0.02 547.3 0 547.21 0L535.1 0C535.01 0 534.93 0.02 534.85 0.05C534.76 0.09 534.69 0.13 534.63 0.2C534.57 0.26 534.52 0.33 534.48 0.42C534.45 0.5 534.43 0.58 534.43 0.67L534.43 2.36L315.6 2.36C313.67 2.36 311.77 2.73 309.99 3.47C308.21 4.21 306.6 5.29 305.24 6.65C303.88 8.01 302.8 9.62 302.06 11.4C301.32 13.18 300.94 15.08 300.94 17.01L300.94 328.85C300.94 330.77 301.32 332.68 302.06 334.45C302.8 336.23 303.88 337.85 305.24 339.21C306.6 340.57 308.21 341.65 309.99 342.38C311.77 343.12 313.67 343.5 315.6 343.5L549.38 343.5C551.31 343.5 553.21 343.12 554.99 342.38C556.77 341.65 558.38 340.57 559.74 339.21C561.11 337.85 562.18 336.23 562.92 334.45C563.66 332.68 564.04 330.77 564.04 328.85L564.04 53.16L565.38 53.16C565.47 53.16 565.56 53.14 565.64 53.11C565.72 53.07 565.8 53.02 565.86 52.96C565.92 52.9 565.97 52.82 566 52.74C566.04 52.66 566.06 52.57 566.06 52.48L566.06 40.37C566.06 40.28 566.04 40.2 566 40.11C565.97 40.03 565.92 39.96 565.86 39.9C565.8 39.83 565.72 39.78 565.64 39.75C565.56 39.72 565.47 39.7 565.38 39.7L565.38 39.7Z" />
	<path id="Layer" class="shp1" d="M313.05 11.94L553.94 11.94L553.94 331.56L313.05 331.56L313.05 11.94Z" />
	<path id="Layer" class="shp0" d="M0 668L1161.52 668L1161.52 670L0 670L0 668Z" />
	<path id="Layer" class="shp2" d="M271.25 568.25C273.49 645.04 228.62 673.18 172.31 674.83C171.01 674.87 169.7 674.89 168.41 674.9C165.8 674.92 163.21 674.88 160.65 674.77C109.72 672.65 69.41 645.62 67.32 574.2C65.17 500.29 156.9 404.26 163.79 397.16C163.79 397.16 163.79 397.16 163.8 397.15C164.06 396.88 164.19 396.75 164.19 396.75C164.19 396.75 269.01 491.46 271.25 568.25Z" />
	<path id="Layer" class="shp0" d="M168.26 663.19L204.03 610L168.33 668.91L168.41 674.9C165.8 674.92 163.21 674.88 160.65 674.77L162.42 597.83L162.38 597.23L162.44 597.12L162.61 589.85L123.44 532.97L162.56 584.41L162.7 585.94L164.04 527.81L130.21 468.84L164.14 517.6L163.79 397.16L163.79 396.76L163.8 397.15L166.04 492.07L196.88 453.52L166.14 500.25L166.82 552.25L195.19 501.5L166.92 559.89L167.3 588.81L208.56 518.12L167.42 598.9L168.26 663.19Z" />
	<path id="Layer" class="shp0" d="M867 106.33L865.51 106.33L865.51 65.52C865.51 62.42 864.9 59.35 863.71 56.49C862.53 53.62 860.79 51.02 858.59 48.82C856.4 46.63 853.8 44.89 850.93 43.7C848.06 42.52 844.99 41.91 841.89 41.91L755.44 41.91C752.33 41.91 749.26 42.52 746.4 43.7C743.53 44.89 740.93 46.63 738.73 48.82C736.54 51.02 734.8 53.62 733.62 56.49C732.43 59.35 731.82 62.42 731.82 65.52L731.82 289.4C731.82 292.5 732.43 295.57 733.62 298.44C734.8 301.3 736.54 303.91 738.73 306.1C740.93 308.29 743.53 310.03 746.4 311.22C749.26 312.41 752.33 313.02 755.44 313.02L841.89 313.02C844.99 313.02 848.06 312.41 850.93 311.22C853.8 310.03 856.4 308.29 858.59 306.1C860.79 303.91 862.53 301.3 863.71 298.44C864.9 295.57 865.51 292.5 865.51 289.4L865.51 135.38L867 135.38L867 106.33Z" />
	<path id="Layer" class="shp1" d="M860.48 66.91L860.48 290.46C860.48 292.78 860.03 295.07 859.14 297.21C858.25 299.35 856.95 301.3 855.32 302.93C853.68 304.57 851.73 305.87 849.6 306.76C847.46 307.64 845.16 308.1 842.85 308.1L755.97 308.1C753.66 308.1 751.36 307.64 749.22 306.76C747.08 305.87 745.14 304.57 743.5 302.93C741.86 301.3 740.56 299.35 739.68 297.21C738.79 295.07 738.34 292.78 738.34 290.46L738.34 66.91C738.34 64.6 738.79 62.3 739.68 60.16C740.57 58.02 741.86 56.08 743.5 54.44C745.14 52.81 747.08 51.51 749.22 50.62C751.36 49.73 753.66 49.28 755.97 49.28L766.51 49.28C765.99 50.55 765.79 51.93 765.94 53.3C766.08 54.66 766.55 55.98 767.32 57.12C768.08 58.26 769.12 59.19 770.33 59.84C771.54 60.48 772.9 60.82 774.27 60.82L823.8 60.82C825.18 60.82 826.53 60.48 827.74 59.84C828.95 59.19 829.99 58.26 830.76 57.12C831.52 55.98 832 54.66 832.14 53.3C832.28 51.93 832.08 50.55 831.56 49.28L842.85 49.28C845.16 49.28 847.45 49.73 849.59 50.62C851.73 51.51 853.68 52.81 855.31 54.44C856.95 56.08 858.25 58.02 859.14 60.16C860.02 62.3 860.48 64.6 860.48 66.91Z" />
	<path id="Layer" class="shp3" d="M774.35 79L847.74 79L847.74 81.73L774.35 81.73L774.35 79Z" />
	<path id="Layer" class="shp3" d="M774.35 87.64L847.74 87.64L847.74 90.36L774.35 90.36L774.35 87.64Z" />
	<path id="Layer" class="shp3" d="M774.35 96.27L847.74 96.27L847.74 99L774.35 99L774.35 96.27Z" />
	<path id="Layer" class="shp3" d="M751.07 80.69L767.7 80.69L767.7 97.31L751.07 97.31L751.07 80.69Z" />
	<path id="Layer" class="shp3" d="M774.35 273L847.74 273L847.74 275.73L774.35 275.73L774.35 273Z" />
	<path id="Layer" class="shp3" d="M774.35 281.64L847.74 281.64L847.74 284.36L774.35 284.36L774.35 281.64Z" />
	<path id="Layer" class="shp3" d="M774.35 290.27L847.74 290.27L847.74 293L774.35 293L774.35 290.27Z" />
	<path id="Layer" class="shp3" d="M751.07 274.69L767.7 274.69L767.7 291.31L751.07 291.31L751.07 274.69Z" />
	<path id="Layer" class="shp0" d="M839.91 380.57L631.19 380.57L631.19 376.27L536.54 376.27L536.54 380.57L326.96 380.57C325.11 380.57 323.27 380.93 321.56 381.64C319.85 382.35 318.29 383.39 316.98 384.7C315.67 386.01 314.63 387.57 313.92 389.28C313.21 391 312.84 392.83 312.84 394.69L312.84 680.49C312.84 682.34 313.21 684.18 313.92 685.89C314.63 687.61 315.67 689.16 316.98 690.47C318.29 691.78 319.85 692.82 321.56 693.53C323.27 694.24 325.11 694.61 326.96 694.61L839.91 694.61C841.76 694.61 843.6 694.24 845.31 693.53C847.02 692.82 848.58 691.78 849.89 690.47C851.2 689.16 852.24 687.61 852.95 685.89C853.66 684.18 854.03 682.34 854.03 680.49L854.03 394.69C854.03 392.83 853.66 391 852.95 389.28C852.24 387.57 851.2 386.01 849.89 384.7C848.58 383.39 847.02 382.35 845.31 381.64C843.6 380.93 841.76 380.57 839.91 380.57L839.91 380.57Z" />
	<path id="Layer" class="shp1" d="M331.77 405.52L835.1 405.52L835.1 689.45L331.77 689.45L331.77 405.52Z" />
	<path id="Layer" class="shp2" d="M583 397.78C580.15 397.78 577.84 395.47 577.84 392.61C577.84 389.76 580.15 387.45 583 387.45C585.86 387.45 588.17 389.76 588.17 392.61C588.17 395.47 585.86 397.78 583 397.78Z" />
	<path id="Layer" class="shp0" d="M868.16 684.28L819.04 684.28L819.04 680.74C819.04 680.65 819.02 680.56 818.98 680.48C818.95 680.39 818.9 680.31 818.83 680.25C818.77 680.18 818.69 680.13 818.6 680.1C818.52 680.06 818.43 680.04 818.34 680.04L801.49 680.04C801.4 680.04 801.31 680.06 801.23 680.1C801.14 680.13 801.06 680.18 801 680.25C800.93 680.31 800.88 680.39 800.85 680.48C800.81 680.56 800.79 680.65 800.79 680.74L800.79 684.28L790.27 684.28L790.27 680.74C790.27 680.65 790.25 680.56 790.21 680.48C790.18 680.39 790.13 680.31 790.06 680.25C790 680.18 789.92 680.13 789.83 680.1C789.75 680.06 789.66 680.04 789.56 680.04L772.72 680.04C772.63 680.04 772.54 680.06 772.45 680.1C772.37 680.13 772.29 680.18 772.23 680.25C772.16 680.31 772.11 680.39 772.07 680.48C772.04 680.56 772.02 680.65 772.02 680.74L772.02 684.28L761.5 684.28L761.5 680.74C761.5 680.65 761.48 680.56 761.44 680.48C761.41 680.39 761.35 680.31 761.29 680.25C761.22 680.18 761.15 680.13 761.06 680.1C760.98 680.06 760.89 680.04 760.79 680.04L743.95 680.04C743.86 680.04 743.77 680.06 743.68 680.1C743.6 680.13 743.52 680.18 743.46 680.25C743.39 680.31 743.34 680.39 743.3 680.48C743.27 680.56 743.25 680.65 743.25 680.74L743.25 684.28L732.72 684.28L732.72 680.74C732.72 680.65 732.71 680.56 732.67 680.48C732.64 680.39 732.58 680.31 732.52 680.25C732.45 680.18 732.38 680.13 732.29 680.1C732.21 680.06 732.11 680.04 732.02 680.04L715.18 680.04C715.09 680.04 715 680.06 714.91 680.1C714.83 680.13 714.75 680.18 714.68 680.25C714.62 680.31 714.57 680.39 714.53 680.48C714.5 680.56 714.48 680.65 714.48 680.74L714.48 684.28L703.95 684.28L703.95 680.74C703.95 680.65 703.93 680.56 703.9 680.48C703.86 680.39 703.81 680.31 703.75 680.25C703.68 680.18 703.6 680.13 703.52 680.1C703.43 680.06 703.34 680.04 703.25 680.04L686.41 680.04C686.32 680.04 686.23 680.06 686.14 680.1C686.06 680.13 685.98 680.18 685.91 680.25C685.85 680.31 685.8 680.39 685.76 680.48C685.73 680.56 685.71 680.65 685.71 680.74L685.71 684.28L675.18 684.28L675.18 680.74C675.18 680.65 675.16 680.56 675.13 680.48C675.09 680.39 675.04 680.31 674.98 680.25C674.91 680.18 674.83 680.13 674.75 680.1C674.66 680.06 674.57 680.04 674.48 680.04L657.64 680.04C657.55 680.04 657.46 680.06 657.37 680.1C657.28 680.13 657.21 680.18 657.14 680.25C657.08 680.31 657.03 680.39 656.99 680.48C656.96 680.56 656.94 680.65 656.94 680.74L656.94 684.28L646.41 684.28L646.41 680.74C646.41 680.65 646.39 680.56 646.36 680.48C646.32 680.39 646.27 680.31 646.21 680.25C646.14 680.18 646.06 680.13 645.98 680.1C645.89 680.06 645.8 680.04 645.71 680.04L513.78 680.04C513.69 680.04 513.6 680.06 513.51 680.1C513.43 680.13 513.35 680.18 513.29 680.25C513.22 680.31 513.17 680.39 513.14 680.48C513.1 680.56 513.08 680.65 513.08 680.74L513.08 684.28L502.56 684.28L502.56 680.74C502.56 680.65 502.54 680.56 502.5 680.48C502.47 680.39 502.42 680.31 502.35 680.25C502.29 680.18 502.21 680.13 502.12 680.1C502.04 680.06 501.95 680.04 501.85 680.04L485.01 680.04C484.92 680.04 484.83 680.06 484.74 680.1C484.66 680.13 484.58 680.18 484.52 680.25C484.45 680.31 484.4 680.39 484.36 680.48C484.33 680.56 484.31 680.65 484.31 680.74L484.31 684.28L473.78 684.28L473.78 680.74C473.78 680.65 473.77 680.56 473.73 680.48C473.7 680.39 473.64 680.31 473.58 680.25C473.51 680.18 473.44 680.13 473.35 680.1C473.27 680.06 473.18 680.04 473.08 680.04L456.24 680.04C456.15 680.04 456.06 680.06 455.97 680.1C455.89 680.13 455.81 680.18 455.75 680.25C455.68 680.31 455.63 680.39 455.59 680.48C455.56 680.56 455.54 680.65 455.54 680.74L455.54 684.28L445.01 684.28L445.01 680.74C445.01 680.65 445 680.56 444.96 680.48C444.93 680.39 444.87 680.31 444.81 680.25C444.74 680.18 444.67 680.13 444.58 680.1C444.5 680.06 444.4 680.04 444.31 680.04L427.47 680.04C427.38 680.04 427.29 680.06 427.2 680.1C427.12 680.13 427.04 680.18 426.97 680.25C426.91 680.31 426.86 680.39 426.82 680.48C426.79 680.56 426.77 680.65 426.77 680.74L426.77 684.28L416.24 684.28L416.24 680.74C416.24 680.65 416.22 680.56 416.19 680.48C416.15 680.39 416.1 680.31 416.04 680.25C415.97 680.18 415.89 680.13 415.81 680.1C415.72 680.06 415.63 680.04 415.54 680.04L398.7 680.04C398.61 680.04 398.52 680.06 398.43 680.1C398.35 680.13 398.27 680.18 398.2 680.25C398.14 680.31 398.09 680.39 398.05 680.48C398.02 680.56 398 680.65 398 680.74L398 684.28L387.47 684.28L387.47 680.74C387.47 680.65 387.45 680.56 387.42 680.48C387.38 680.39 387.33 680.31 387.27 680.25C387.2 680.18 387.12 680.13 387.04 680.1C386.95 680.06 386.86 680.04 386.77 680.04L369.93 680.04C369.84 680.04 369.74 680.06 369.66 680.1C369.57 680.13 369.5 680.18 369.43 680.25C369.37 680.31 369.32 680.39 369.28 680.48C369.24 680.56 369.23 680.65 369.23 680.74L369.23 684.28L358.7 684.28L358.7 680.74C358.7 680.65 358.68 680.56 358.65 680.48C358.61 680.39 358.56 680.31 358.5 680.25C358.43 680.18 358.35 680.13 358.27 680.1C358.18 680.06 358.09 680.04 358 680.04L341.16 680.04C341.07 680.04 340.97 680.06 340.89 680.1C340.8 680.13 340.73 680.18 340.66 680.25C340.6 680.31 340.54 680.39 340.51 680.48C340.47 680.56 340.46 680.65 340.46 680.74L340.46 684.28L308.18 684.28C305.96 684.28 303.77 684.72 301.73 685.57C299.69 686.41 297.83 687.65 296.27 689.22C294.7 690.78 293.46 692.64 292.62 694.68C291.77 696.72 291.33 698.91 291.33 701.13L291.33 708.74C291.33 710.95 291.77 713.14 292.62 715.19C293.46 717.23 294.7 719.09 296.27 720.65C297.83 722.21 299.69 723.45 301.73 724.3C303.77 725.15 305.96 725.58 308.18 725.58L868.16 725.58C870.37 725.58 872.56 725.15 874.6 724.3C876.65 723.45 878.5 722.21 880.07 720.65C881.63 719.09 882.87 717.23 883.72 715.19C884.56 713.14 885 710.95 885 708.74L885 701.13C885 698.91 884.56 696.72 883.72 694.68C882.87 692.64 881.63 690.78 880.07 689.22C878.5 687.65 876.65 686.41 874.6 685.57C872.56 684.72 870.37 684.28 868.16 684.28L868.16 684.28Z" />
	<path id="Layer" class="shp4" d="M534.79 427.76L676.03 427.76L676.03 433L534.79 433L534.79 427.76Z" />
	<path id="Layer" class="shp4" d="M534.79 444.38L676.03 444.38L676.03 449.62L534.79 449.62L534.79 444.38Z" />
	<path id="Layer" class="shp4" d="M534.79 461L676.03 461L676.03 466.24L534.79 466.24L534.79 461Z" />
	<path id="Layer" class="shp3" d="M534.79 427.76L676.03 427.76L676.03 433L534.79 433L534.79 427.76Z" />
	<path id="Layer" class="shp3" d="M534.79 444.38L676.03 444.38L676.03 449.62L534.79 449.62L534.79 444.38Z" />
	<path id="Layer" class="shp3" d="M534.79 461L676.03 461L676.03 466.24L534.79 466.24L534.79 461Z" />
	<path id="Layer" class="shp3" d="M490 431L522 431L522 463L490 463L490 431Z" />
	<path id="Layer" class="shp3" d="M534.79 614.76L676.03 614.76L676.03 620L534.79 620L534.79 614.76Z" />
	<path id="Layer" class="shp3" d="M534.79 631.38L676.03 631.38L676.03 636.62L534.79 636.62L534.79 631.38Z" />
	<path id="Layer" class="shp3" d="M534.79 648L676.03 648L676.03 653.24L534.79 653.24L534.79 648Z" />
	<path id="Layer" class="shp3" d="M490 618L522 618L522 650L490 650L490 618Z" />
	<path id="Layer" class="shp0" d="M924.27 309.05C922.22 306.81 919.97 304.75 917.57 302.89C915.16 301.04 912.6 299.39 909.91 297.97C907.22 296.56 904.42 295.37 901.53 294.43C898.64 293.49 895.67 292.8 892.67 292.37L897.86 287.67L892.11 287.38L885 293.81L891.43 300.93L897.18 301.22L892.87 296.45C905.12 298.43 916.18 304.95 923.84 314.71C931.5 324.47 935.2 336.76 934.21 349.13C933.21 361.5 927.6 373.04 918.48 381.45C909.36 389.87 897.41 394.54 885 394.54L885 398.54C895.37 398.54 905.51 395.52 914.18 389.85C922.86 384.19 929.7 376.11 933.87 366.62C938.03 357.13 939.34 346.63 937.64 336.41C935.93 326.18 931.29 316.68 924.27 309.05L924.27 309.05Z" />
	<path id="Layer" class="shp0" d="M233.73 309.05C235.78 306.81 238.03 304.75 240.43 302.89C242.84 301.04 245.4 299.39 248.09 297.97C250.78 296.56 253.58 295.37 256.47 294.43C259.36 293.49 262.33 292.8 265.33 292.37L260.14 287.67L265.89 287.38L273 293.81L266.57 300.93L260.82 301.22L265.13 296.45C252.88 298.43 241.82 304.95 234.16 314.71C226.5 324.47 222.8 336.76 223.79 349.13C224.79 361.5 230.4 373.04 239.52 381.45C248.64 389.87 260.59 394.54 273 394.54L273 398.54C262.63 398.54 252.49 395.52 243.82 389.85C235.14 384.19 228.3 376.11 224.13 366.62C219.97 357.13 218.66 346.63 220.36 336.41C222.07 326.18 226.71 316.68 233.73 309.05L233.73 309.05Z" />
	<path id="Layer" class="shp3" d="M385.27 27.76L526.51 27.76L526.51 33L385.27 33L385.27 27.76Z" />
	<path id="Layer" class="shp3" d="M385.27 44.38L526.51 44.38L526.51 49.62L385.27 49.62L385.27 44.38Z" />
	<path id="Layer" class="shp3" d="M385.27 61L526.51 61L526.51 66.24L385.27 66.24L385.27 61Z" />
	<path id="Layer" class="shp3" d="M340.49 31L372.49 31L372.49 63L340.49 63L340.49 31Z" />
	<path id="Layer" class="shp3" d="M384.79 276.76L526.03 276.76L526.03 282L384.79 282L384.79 276.76Z" />
	<path id="Layer" class="shp3" d="M384.79 293.38L526.03 293.38L526.03 298.62L384.79 298.62L384.79 293.38Z" />
	<path id="Layer" class="shp3" d="M384.79 310L526.03 310L526.03 315.24L384.79 315.24L384.79 310Z" />
	<path id="Layer" class="shp3" d="M340 280L372 280L372 312L340 312L340 280Z" />
	<path id="Layer" class="shp5" d="M966.53 327.92L998.43 281.62C998.43 281.62 1026.2 259.35 1018.24 255.01C1010.28 250.67 989.44 271 989.44 271C989.44 271 929.31 317.1 939.23 323.53C949.14 329.96 966.53 327.92 966.53 327.92Z" />
	<path id="Layer" class="shp2" d="M971.17 267.11L1012.47 267.11C1013.17 263.05 1013.7 258.95 1014.06 254.85C1014.41 250.74 1014.58 246.61 1014.58 242.49C1014.58 238.36 1014.41 234.24 1014.06 230.13C1013.7 226.02 1013.17 221.93 1012.47 217.86L971.17 217.86C972.32 221.86 973.2 225.93 973.78 230.05C974.36 234.17 974.66 238.33 974.66 242.49C974.66 246.65 974.36 250.8 973.78 254.92C973.2 259.04 972.32 263.12 971.17 267.11Z" />
	<path id="Layer" class="shp6" d="M1078.55 269.46C1066.14 248.49 1041.58 247.51 1041.58 247.51C1041.58 247.51 1017.65 244.45 1002.3 276.39C988 306.17 968.25 334.91 999.12 341.88L1004.7 324.52L1008.16 343.17C1009.25 343.25 1010.35 343.32 1011.45 343.36C1012.56 343.41 1013.66 343.45 1014.76 343.47C1015.86 343.49 1016.96 343.49 1018.06 343.48C1019.16 343.47 1020.27 343.44 1021.37 343.4C1054.43 342.33 1085.92 343.71 1084.91 331.85C1083.56 316.07 1090.5 289.64 1078.55 269.46Z" />
	<path id="Layer" class="shp5" d="M1012.56 398.74L996.66 435.31L1052.31 444.06C1052.31 444.06 1078.54 408.28 1080.93 405.9L1012.56 398.74Z" />
	<path id="Layer" class="shp5" d="M1038.79 319.24C1022.53 319.24 1009.38 306.09 1009.38 289.82C1009.38 273.56 1022.53 260.41 1038.79 260.41C1055.06 260.41 1068.21 273.56 1068.21 289.82C1068.21 306.09 1055.06 319.24 1038.79 319.24Z" />
	<path id="Layer" class="shp5" d="M1031.64 311.29C1031.64 311.29 1045.15 341.5 1043.56 344.68C1041.97 347.86 1072.18 327.99 1072.18 327.99C1072.18 327.99 1059.46 306.52 1060.26 303.34L1031.64 311.29Z" />
	<path id="Layer" class="shp5" d="M1076.16 324.01C1076.16 324.01 1100.01 310.5 1113.52 347.86C1113.52 347.86 1158.04 400.33 1150.09 409.87C1142.14 419.41 1111.93 386.82 1111.93 386.82L1092.85 366.94C1092.85 366.94 1065.82 359.79 1068.21 344.68C1070.59 329.58 1076.16 324.01 1076.16 324.01Z" />
	<path id="Layer" class="shp5" d="M1020.51 342.3L964.86 326.4C964.86 326.4 935.44 314.47 936.24 321.63C937.03 328.78 990.3 369.33 1007.79 366.94C1025.28 364.56 1020.51 342.3 1020.51 342.3Z" />
	<path id="Layer" class="shp7" d="M1052.31 336.73C1052.31 336.73 1034.02 334.35 1030.05 338.32C1026.07 342.3 1018.52 338.72 1018.52 338.72L1005.8 361.77C1005.8 361.77 996.66 374.89 1003.81 387.61C1010.97 400.33 1000.63 417.03 1000.63 417.03C1000.63 417.03 1057.87 417.03 1069.8 423.39C1081.72 429.75 1096.1 370.32 1096.1 370.32C1096.1 370.32 1081.33 352.23 1085.3 341.1C1089.28 329.97 1086.89 321.23 1086.89 321.23L1069.4 322.82L1052.31 336.73Z" />
	<path id="Layer" class="shp5" d="M983.94 688.12L990.3 749.34L1014.94 736.62L1006.99 683.35L983.94 688.12L983.94 688.12Z" />
	<path id="Layer" class="shp5" d="M1076.95 687.33L1097.65 742.67L1117.52 728.36L1092.85 674.61L1076.95 687.33L1076.95 687.33Z" />
	<path id="Layer" class="shp6" d="M1014.94 715.95C1014.63 717.07 1014.28 718.17 1013.89 719.27C1013.5 720.36 1013.07 721.44 1012.61 722.51C1012.14 723.57 1011.64 724.62 1011.1 725.64C1010.56 726.67 1009.99 727.68 1009.38 728.67C1005.4 735.03 995.86 731.85 995.86 731.85C995.86 731.85 984.73 723.1 982.35 727.08C979.96 731.05 967.24 750.93 967.24 750.93C967.24 750.93 925.11 785.91 960.88 791.48C996.66 797.04 1003.81 770.81 1003.81 770.81C1003.81 770.81 1030.84 761.27 1031.64 751.72C1032.43 742.18 1014.94 715.95 1014.94 715.95Z" />
	<path id="Layer" class="shp6" d="M1098.42 727.54C1098.42 727.54 1085.7 723.56 1086.49 729.92C1087.29 736.28 1092.06 761.72 1092.06 761.72C1092.06 761.72 1083.31 797.5 1107.96 791.14C1132.6 784.78 1133.4 750.59 1133.4 750.59C1133.4 750.59 1146.12 705.28 1136.58 704.48C1127.04 703.69 1103.98 701.3 1103.98 701.3C1103.98 701.3 1118.29 724.36 1098.42 727.54Z" />
	<path id="Layer" class="shp6" d="M1073.07 267.44L1048.8 254.73L1015.3 259.93L1008.37 290.55L1025.62 289.88L1030.44 278.63L1030.44 289.7L1038.41 289.39L1043.03 271.48L1045.92 290.55L1074.22 289.97L1073.07 267.44L1073.07 267.44Z" />
	<path id="Layer" class="shp6" d="M1061.05 441.67L994.27 426.57C994.27 426.57 960.88 483.81 956.11 531.51C951.34 579.21 929.88 693.69 964.06 695.28C998.25 696.87 1018.12 696.87 1019.71 693.69C1021.3 690.51 1003.02 564.9 1003.02 564.9C1003.02 564.9 1041.97 719.13 1063.44 708.79C1084.9 698.46 1108.75 684.94 1107.96 676.99C1107.16 669.04 1055.49 584.77 1055.49 584.77L1062.64 511.63C1062.64 511.63 1071.39 482.22 1056.28 455.19L1061.05 441.67Z" />
	<path id="Layer" class="shp2" d="M1012.92 421.8L1054.23 421.8C1054.93 417.73 1055.46 413.64 1055.81 409.53C1056.16 405.42 1056.34 401.3 1056.34 397.17C1056.34 393.05 1056.16 388.93 1055.81 384.82C1055.46 380.71 1054.93 376.61 1054.23 372.55L1012.92 372.55C1014.08 376.55 1014.95 380.62 1015.54 384.74C1016.12 388.86 1016.41 393.01 1016.41 397.17C1016.41 401.33 1016.12 405.49 1015.54 409.61C1014.95 413.73 1014.08 417.8 1012.92 421.8Z" />
	<path id="Layer" class="shp5" d="M1133.4 386.02L1063.44 384.43C1063.44 384.43 1032.43 360.58 1031.64 374.89C1030.84 389.2 1064.23 397.15 1064.23 397.15C1064.23 397.15 1136.01 422.91 1147.03 411.62L1133.4 386.02Z" />
	<path id="Layer" class="shp2" d="M375.86 197.9C362.67 197.9 352 187.23 352 174.03C352 160.83 362.67 150.17 375.86 150.17C389.06 150.17 399.73 160.83 399.73 174.03C399.73 187.23 389.06 197.9 375.86 197.9Z" />
	<path id="Layer" class="shp2" d="M439.5 193.53C428.72 193.53 420 184.81 420 174.03C420 163.25 428.72 154.53 439.5 154.53C450.28 154.53 459 163.25 459 174.03C459 184.81 450.28 193.53 439.5 193.53Z" />
	<path id="Layer" class="shp2" d="M503.14 185.9C496.58 185.9 491.27 180.59 491.27 174.03C491.27 167.47 496.58 162.17 503.14 162.17C509.7 162.17 515 167.47 515 174.03C515 180.59 509.7 185.9 503.14 185.9Z" />
	<path id="Layer" class="shp2" d="M768.98 189.56C762.05 189.56 756.44 183.95 756.44 177.02C756.44 170.09 762.05 164.48 768.98 164.48C775.91 164.48 781.51 170.09 781.51 177.02C781.51 183.95 775.91 189.56 768.98 189.56Z" />
	<path id="Layer" class="shp2" d="M802.41 186.99C796.9 186.99 792.44 182.53 792.44 177.02C792.44 171.51 796.9 167.05 802.41 167.05C807.92 167.05 812.38 171.51 812.38 177.02C812.38 182.53 807.92 186.99 802.41 186.99Z" />
	<path id="Layer" class="shp2" d="M835.84 183.56C832.22 183.56 829.3 180.63 829.3 177.02C829.3 173.41 832.22 170.48 835.84 170.48C839.45 170.48 842.38 173.41 842.38 177.02C842.38 180.63 839.45 183.56 835.84 183.56Z" />
	<path id="Layer" class="shp2" d="M583 594.03C552.03 594.03 527 569 527 538.03C527 507.06 552.03 482.03 583 482.03C613.97 482.03 639 507.06 639 538.03C639 569 613.97 594.03 583 594.03Z" />
	<path id="Layer" class="shp7" d="M603.83 550.35L582.95 508.16L562.17 550.4L573.91 550.39L573.91 567.9L592.08 567.9L592.08 550.36L603.83 550.35L603.83 550.35Z" />
</svg>